<svg version="1.0" xmlns="http://www.w3.org/2000/svg" width="1024.000000pt" height="1024.000000pt" viewBox="0 0 1024.000000 1024.000000" preserveAspectRatio="xMidYMid meet">

<g transform="translate(0.000000,1024.000000) scale(0.100000,-0.100000)" fill="#6610f2" stroke="none">
<path d="M5469 9180 c-69 -12 -196 -48 -269 -77 -209 -83 -339 -169 -791 -524 -80 -63 -174 -136 -210 -164 -329 -255 -781 -610 -1329 -1044 -85 -67 -224 -177 -309 -244 -132 -103 -600 -480 -996 -802 -491 -399 -684 -645 -750 -958 -52 -243 27 -487 157 -487 59 0 94 26 216 163 60 67 194 203 298 302 104 99 260 249 347 333 150 146 159 153 176 138 25 -23 83 -31 123 -17 31 11 34 10 60 -21 37 -42 45 -88 23 -122 -14 -21 -15 -29 -5 -41 21 -25 113 -80 117 -69 2 6 9 18 16 27 11 15 18 15 79 0 l67 -17 6 -45 c4 -25 7 -53 8 -61 2 -10 17 -16 51 -18 l48 -3 -7 60 c-6 55 -5 60 10 55 16 -6 16 1 9 82 -11 139 -9 224 10 286 20 68 112 210 191 292 l56 58 -159 237 -159 236 40 29 41 29 39 -44 c22 -24 94 -120 159 -212 169 -237 156 -224 212 -209 26 6 58 12 72 12 21 0 25 3 19 18 -4 9 -9 25 -12 34 -7 23 -28 29 -59 18 -14 -6 -27 -10 -30 -10 -2 0 -25 31 -50 70 l-46 69 31 27 c17 14 31 31 31 38 0 20 -55 66 -79 66 -12 0 -21 4 -19 9 2 5 131 116 288 247 157 131 315 264 353 296 37 32 71 58 76 58 12 0 119 -61 176 -100 34 -23 45 -36 40 -48 -33 -80 -32 -89 14 -115 l31 -18 22 46 c12 25 24 45 27 45 4 0 23 -15 45 -33 l39 -33 -22 -42 c-27 -53 -27 -54 8 -75 41 -24 46 -22 75 28 15 25 29 45 31 45 3 0 27 -12 54 -27 27 -16 51 -26 53 -23 2 3 19 43 37 90 115 293 270 519 396 580 52 25 157 34 202 17 18 -7 21 -5 16 13 -7 26 -57 68 -109 91 -34 16 -42 25 -47 53 -3 19 -21 71 -40 115 -20 45 -34 81 -31 81 2 0 22 -7 44 -16 23 -9 42 -15 44 -13 7 10 46 81 46 84 0 2 -27 18 -60 37 -33 18 -60 37 -60 43 0 5 44 43 98 84 664 507 751 577 852 689 68 75 120 169 120 217 0 76 -100 110 -251 85z m146 -144 c18 -13 18 -15 3 -38 -14 -21 -28 -27 -77 -32 -146 -17 -356 -101 -516 -208 -90 -60 -221 -158 -432 -322 -328 -257 -618 -483 -657 -512 -22 -18 -210 -165 -416 -328 -206 -163 -494 -389 -640 -504 -507 -396 -944 -753 -1295 -1057 -429 -372 -565 -573 -590 -877 -12 -143 -48 -160 -64 -31 -23 187 38 376 187 571 92 120 169 198 360 370 163 145 224 197 523 443 107 88 600 482 724 579 39 30 133 104 210 165 430 341 636 502 880 693 44 34 96 75 115 90 240 193 930 721 1010 775 114 75 269 154 365 186 141 46 275 62 310 37z m-1623 -1751 c135 -86 134 -85 113 -124 -9 -18 -19 -31 -23 -29 -39 17 -252 153 -252 160 0 15 34 57 47 58 6 0 58 -29 115 -65z m-1914 -1267 c34 -51 62 -96 62 -100 0 -4 -13 -14 -29 -23 -29 -15 -30 -15 -64 33 -19 26 -49 69 -66 97 l-31 50 22 17 c13 10 28 18 33 18 6 0 39 -42 73 -92z m333 -230 c55 -11 57 -13 63 -47 3 -20 6 -46 6 -57 l0 -21 -76 18 c-42 10 -78 19 -80 21 -1 2 -6 28 -10 57 -7 54 -7 54 17 48 13 -4 49 -12 80 -19z" fill="#6610f2"/>
<path d="M8353 7658 c-62 -16 -65 -50 -19 -203 28 -93 48 -275 30 -275 -5 0 -17 13 -27 29 -9 15 -35 45 -57 65 -51 46 -98 49 -129 10 -39 -49 -20 -136 66 -308 54 -108 143 -256 154 -256 13 0 -11 -71 -38 -111 -25 -38 -26 -46 -45 -386 -21 -378 -24 -399 -84 -476 -33 -43 -36 -52 -49 -170 -21 -191 -52 -293 -202 -669 l-87 -218 -145 0 -146 0 -80 -47 c-44 -25 -115 -66 -157 -90 -76 -44 -273 -121 -266 -105 4 12 193 177 246 215 l44 32 -34 7 c-18 4 -71 10 -118 13 -78 6 -89 4 -137 -19 -65 -32 -70 -32 -163 -2 -41 13 -98 29 -127 36 l-52 13 -108 -65 c-59 -36 -130 -76 -158 -88 -27 -12 -67 -31 -89 -41 -21 -11 -41 -18 -43 -15 -3 3 49 60 116 127 66 68 120 124 118 125 -23 19 -155 94 -166 94 -7 0 -56 -39 -108 -87 -147 -137 -129 -128 -196 -96 -31 16 -57 31 -57 35 0 4 55 52 123 108 67 56 133 111 146 122 22 18 23 25 17 91 -3 40 -13 317 -21 617 -9 300 -18 573 -21 608 l-6 62 -123 94 c-186 141 -195 149 -195 171 0 11 -3 30 -6 43 -6 21 -10 22 -128 22 -173 0 -436 12 -436 20 0 6 228 123 260 132 10 3 0 14 -30 32 -25 15 -164 97 -310 184 l-265 157 -84 5 -85 5 75 58 c69 52 80 57 126 57 l52 0 -19 66 c-11 37 -22 69 -25 72 -10 10 -231 62 -292 68 -51 6 -69 3 -107 -16 -90 -43 -215 -214 -306 -417 -67 -150 -107 -270 -95 -282 12 -12 640 -394 815 -496 144 -84 214 -120 251 -128 22 -6 29 -16 39 -54 6 -27 23 -69 37 -95 25 -45 25 -51 15 -110 -6 -35 -45 -259 -87 -498 l-76 -434 35 -81 c19 -44 46 -106 60 -138 15 -32 21 -55 14 -51 -7 4 -78 60 -158 124 -80 65 -262 204 -405 310 -143 106 -266 200 -272 208 -7 9 -13 33 -13 53 0 31 -6 43 -32 63 -55 41 -320 196 -337 196 -9 1 -168 -21 -353 -47 -185 -26 -339 -45 -342 -42 -3 3 -8 23 -11 44 l-6 40 218 53 c120 30 225 56 233 59 18 7 30 3 -251 80 l-215 60 -100 -13 c-159 -21 -152 -25 -98 55 45 68 77 91 125 91 11 0 19 7 19 15 0 32 -53 146 -74 158 -13 7 -67 12 -141 12 -109 0 -125 -2 -175 -26 -136 -64 -294 -272 -307 -403 -5 -62 20 -354 33 -365 5 -5 131 -75 279 -156 149 -81 316 -174 372 -206 l103 -59 146 0 146 0 50 -45 50 -45 87 0 86 0 26 -42 c15 -24 75 -102 135 -174 60 -72 236 -283 390 -470 155 -186 314 -375 353 -419 40 -44 92 -114 116 -155 24 -42 57 -88 73 -103 39 -37 223 -167 279 -197 25 -14 120 -71 211 -127 90 -57 172 -103 181 -103 9 0 43 7 74 15 32 8 69 15 82 15 14 0 98 -25 187 -56 90 -31 253 -84 363 -119 165 -52 203 -67 221 -90 l22 -28 94 33 c51 19 124 46 162 62 38 15 72 28 75 28 3 0 21 -13 39 -30 l33 -29 -28 -14 c-15 -8 -77 -36 -138 -62 -139 -60 -338 -159 -477 -237 l-108 -61 0 -71 0 -71 -64 -60 -64 -61 39 -50 c21 -27 39 -52 39 -56 0 -3 -43 -21 -95 -38 -52 -17 -95 -34 -95 -36 0 -3 5 -14 10 -24 7 -12 7 -28 0 -44 -9 -25 -12 -26 -101 -26 -50 0 -89 -3 -87 -7 2 -5 16 -32 31 -62 l29 -54 -39 6 c-21 3 -77 11 -125 18 -86 13 -87 12 -160 -16 -40 -15 -97 -39 -127 -52 l-53 -25 38 -39 c21 -21 35 -42 31 -45 -3 -4 -30 -13 -58 -20 -51 -13 -52 -13 -88 15 -71 56 -52 57 -372 -30 -163 -44 -321 -81 -354 -83 -51 -3 -80 3 -189 40 -274 94 -470 98 -501 11 -16 -48 17 -96 94 -134 l64 -32 -39 -16 c-21 -9 -95 -35 -164 -57 -159 -50 -189 -65 -218 -108 -50 -74 -6 -205 109 -322 97 -99 134 -113 289 -112 96 1 152 7 240 27 148 34 352 92 391 113 25 13 33 13 39 3 7 -10 32 -6 117 16 133 34 686 188 1208 336 215 61 414 118 444 126 59 17 109 61 252 223 113 128 176 225 184 285 4 28 10 55 14 62 3 6 62 48 131 93 69 46 156 113 194 149 70 68 225 239 311 346 27 33 76 94 110 135 33 41 65 86 72 100 13 29 170 244 181 247 4 1 50 -36 102 -82 108 -98 91 -94 295 -70 220 25 195 14 285 123 97 117 147 213 159 302 4 36 10 71 12 78 3 8 -18 20 -56 33 -32 11 -82 36 -110 55 -56 37 -216 198 -280 282 -45 59 -29 56 -185 32 -87 -13 -160 2 -206 42 -73 64 -122 210 -115 340 1 20 17 40 64 79 34 29 64 56 65 60 2 5 -26 22 -61 38 -37 17 -68 37 -71 48 -10 30 10 169 30 210 23 47 96 93 209 131 71 24 94 27 200 25 79 0 166 -9 253 -25 l132 -24 0 205 0 206 45 60 c25 33 45 71 45 84 0 13 -12 68 -26 121 l-26 97 29 94 30 95 -24 85 c-23 83 -23 89 -16 397 6 306 6 313 -14 335 -12 12 -30 37 -41 56 -19 31 -20 37 -6 63 24 46 40 298 26 411 -21 172 -65 260 -186 375 -105 99 -205 142 -283 120z" fill="#6610f2"/>
<path d="M8197 4781 c-60 -20 -113 -44 -118 -53 -5 -8 -12 -47 -15 -85 l-7 -69 72 -32 c117 -52 117 -91 1 -187 l-72 -59 6 -53 c17 -144 79 -233 163 -233 55 0 276 65 294 86 7 8 8 40 4 92 l-7 80 -82 -30 c-151 -55 -275 -98 -285 -98 -8 0 -45 90 -38 95 1 2 90 33 197 70 107 38 197 70 199 72 6 4 1 367 -5 373 -3 2 -46 -11 -97 -29 -181 -66 -282 -99 -289 -94 -10 5 -10 64 0 80 4 6 55 32 115 58 59 26 107 49 107 51 0 10 -43 0 -143 -35z" fill="#6610f2"/>
<path d="M1802 4760 c-26 -24 -29 -66 -6 -98 22 -32 86 -31 108 3 23 34 20 62 -9 90 -29 30 -64 32 -93 5z" fill="#6610f2"/>
<path d="M8609 4775 c-2 -2 0 -151 5 -331 7 -252 6 -339 -4 -376 -11 -47 -11 -50 16 -86 15 -20 82 -92 148 -158 201 -202 288 -226 410 -114 99 91 156 229 156 375 0 111 -14 174 -60 270 -113 235 -333 383 -621 419 -26 3 -48 4 -50 1z" fill="#6610f2"/>
<path d="M1463 4682 c-53 -8 -70 -86 -28 -127 30 -30 64 -32 99 -4 28 22 35 64 16 99 -11 21 -55 37 -87 32z" fill="#6610f2"/>
<path d="M2588 4460 c-28 -28 -30 -36 -25 -78 7 -66 43 -96 106 -89 133 15 115 197 -19 197 -22 0 -41 -10 -62 -30z" fill="#6610f2"/>
<path d="M1613 4374 c-59 -29 -81 -120 -43 -181 67 -110 250 -64 250 64 0 102 -110 165 -207 117z" fill="#6610f2"/>
<path d="M2231 4294 c-27 -22 -31 -33 -31 -73 0 -54 17 -83 59 -101 70 -28 151 24 151 97 0 27 -8 43 -34 69 -44 44 -99 47 -145 8z" fill="#6610f2"/>
<path d="M1213 4178 c-30 -39 -17 -94 24 -104 57 -15 98 60 55 99 -22 20 -66 22 -79 5z" fill="#6610f2"/>
<path d="M1869 4087 c-70 -47 -76 -144 -13 -204 45 -42 91 -51 149 -28 78 29 108 97 76 170 -36 82 -138 112 -212 62z" fill="#6610f2"/>
<path d="M2593 4035 c-38 -16 -53 -42 -53 -90 0 -48 44 -95 90 -95 37 0 100 55 100 88 0 75 -72 126 -137 97z" fill="#6610f2"/>
<path d="M3115 3968 c-36 -19 -55 -52 -55 -93 0 -101 108 -147 182 -77 70 66 24 183 -72 182 -19 0 -44 -6 -55 -12z" fill="#6610f2"/>
<path d="M1303 3948 c-27 -13 -47 -60 -39 -93 16 -65 101 -88 146 -40 68 73 -16 177 -107 133z" fill="#6610f2"/>
<path d="M3338 3741 c-27 -24 -33 -36 -33 -71 0 -90 112 -135 176 -71 92 92 -46 229 -143 142z" fill="#6610f2"/>
<path d="M2083 3716 c-22 -19 -28 -32 -28 -65 0 -50 26 -79 76 -87 28 -5 41 -1 67 21 45 38 45 92 1 129 -38 33 -79 33 -116 2z" fill="#6610f2"/>
<path d="M3702 3657 c-40 -43 -19 -109 39 -122 33 -8 89 36 89 70 0 65 -84 99 -128 52z" fill="#6610f2"/>
<path d="M2752 3600 c-29 -27 -28 -71 1 -97 37 -35 61 -37 96 -7 36 30 40 60 10 98 -26 33 -75 35 -107 6z" fill="#6610f2"/>
<path d="M3263 3465 c-17 -7 -39 -28 -48 -46 -46 -89 55 -188 148 -144 83 39 79 154 -8 191 -42 17 -51 17 -92 -1z" fill="#6610f2"/>
<path d="M1781 3456 c19 -19 450 -143 929 -267 854 -222 1426 -391 2025 -599 407 -142 735 -256 1045 -363 l246 -84 39 34 c22 19 59 48 83 64 54 38 49 45 -69 104 -101 51 -412 185 -429 185 -7 0 -33 23 -58 51 -87 98 -171 131 -314 128 -76 -1 -103 2 -148 20 -29 12 -61 20 -70 18 -12 -3 -21 9 -33 44 -23 65 -101 148 -174 184 -52 27 -67 30 -153 30 -84 0 -101 -4 -146 -27 -46 -24 -56 -26 -90 -16 -52 14 -171 5 -211 -16 -32 -16 -33 -16 -79 19 -26 20 -59 38 -73 41 -22 5 -29 15 -44 66 -23 78 -105 164 -182 191 -114 39 -223 12 -274 -69 -17 -26 -32 -50 -33 -54 -3 -8 -125 14 -513 90 -871 171 -1295 247 -1274 226z" fill="#6610f2"/>
<path d="M4220 3230 c-37 -37 -19 -87 37 -104 17 -5 29 -1 48 18 31 31 32 50 0 81 -29 30 -58 32 -85 5z" fill="#6610f2"/>
<path d="M7016 1911 c-25 -33 -46 -64 -46 -69 0 -11 89 -41 465 -160 386 -123 875 -265 883 -257 2 2 -13 11 -34 20 -22 10 -68 30 -104 45 -36 15 -139 60 -230 100 -91 40 -268 116 -395 170 -126 54 -288 123 -358 154 -71 31 -130 56 -131 56 -2 0 -24 -27 -50 -59z" fill="#6610f2"/>
</g>
</svg>