<svg data-v-423bf9ae="" xmlns="http://www.w3.org/2000/svg" viewBox="0 0 272.7219108098144 60" class="font"><!----><!----><defs data-v-423bf9ae=""><linearGradient data-v-423bf9ae="" gradientTransform="rotate(25)" id="79f989d8-e361-47fe-9053-2ca520732be6" x1="0%" y1="0%" x2="100%" y2="0%"><stop data-v-423bf9ae="" offset="0%" style="stop-color: rgb(81, 6, 255); stop-opacity: 1;"></stop><stop data-v-423bf9ae="" offset="100%" style="stop-color: rgb(97, 203, 242); stop-opacity: 1;"></stop></linearGradient></defs><g data-v-423bf9ae="" id="b946bccb-0823-4a6b-a767-5589bef69f29" fill="url(#79f989d8-e361-47fe-9053-2ca520732be6)" transform="matrix(5.917160119482044,0,0,5.917160119482044,-3.7869813017525757,-42.89941086624482)"><path d="M0.85 15.90L0.85 15.90Q1.41 16.04 2.16 16.14L2.16 16.14L2.16 16.14Q2.91 16.23 3.60 16.23L3.60 16.23L3.60 16.23Q4.31 16.23 5.18 16.14L5.18 16.14L5.18 13.54L3.85 13.44L3.85 13.44Q2.56 13.34 1.92 13.11L1.92 13.11L1.92 13.11Q1.27 12.88 1.02 12.38L1.02 12.38L1.02 12.38Q0.76 11.89 0.76 10.95L0.76 10.95L0.76 10.95Q0.76 9.94 1.02 9.35L1.02 9.35L1.02 9.35Q1.27 8.75 1.85 8.48L1.85 8.48L1.85 8.48Q2.44 8.22 3.42 8.22L3.42 8.22L3.42 8.22Q4.83 8.22 6.24 8.48L6.24 8.48L6.06 9.59L6.06 9.59Q4.94 9.38 3.50 9.38L3.50 9.38L3.50 9.38Q2.79 9.38 2.28 9.45L2.28 9.45L2.28 12.08L3.84 12.18L3.84 12.18Q4.96 12.25 5.57 12.51L5.57 12.51L5.57 12.51Q6.19 12.77 6.45 13.31L6.45 13.31L6.45 13.31Q6.71 13.85 6.71 14.80L6.71 14.80L6.71 14.80Q6.71 15.78 6.40 16.34L6.40 16.34L6.40 16.34Q6.09 16.90 5.39 17.14L5.39 17.14L5.39 17.14Q4.69 17.39 3.47 17.39L3.47 17.39L3.47 17.39Q1.99 17.39 0.64 17.05L0.64 17.05L0.85 15.90ZM11.03 13.93L9.93 13.93L9.93 17.18L8.53 17.18L8.53 8.08L9.93 7.87L9.93 12.95L11.03 12.95L12.52 10.18L13.99 10.18L12.19 13.44L14.06 17.18L12.61 17.18L11.03 13.93ZM15.30 17.18L15.30 17.18ZM15.46 10.28L16.86 10.07L16.86 17.18L15.46 17.18L15.46 10.28ZM16.17 8.96L16.17 8.96Q15.65 8.96 15.48 8.79L15.48 8.79L15.48 8.79Q15.30 8.61 15.30 8.12L15.30 8.12L15.30 8.12Q15.30 7.62 15.48 7.43L15.48 7.43L15.48 7.43Q15.67 7.25 16.17 7.25L16.17 7.25L16.17 7.25Q16.66 7.25 16.84 7.43L16.84 7.43L16.84 7.43Q17.01 7.62 17.01 8.12L17.01 8.12L17.01 8.12Q17.01 8.61 16.84 8.79L16.84 8.79L16.84 8.79Q16.67 8.96 16.17 8.96L16.17 8.96ZM26.92 10.04L26.92 10.04Q27.90 10.04 28.41 10.34L28.41 10.34L28.41 10.34Q28.91 10.64 28.91 11.23L28.91 11.23L28.91 17.18L27.51 17.18L27.51 11.19L26.03 11.19L26.03 11.19Q25.41 11.19 25.16 11.31L25.16 11.31L25.16 11.31Q24.91 11.44 24.85 11.77L24.85 11.77L24.85 17.18L23.45 17.18L23.45 11.19L21.97 11.19L21.97 11.19Q21.28 11.19 21.03 11.35L21.03 11.35L21.03 11.35Q20.78 11.52 20.78 12.00L20.78 12.00L20.78 17.18L19.38 17.18L19.38 10.18L20.02 10.18L20.40 10.88L20.40 10.88Q20.90 10.44 21.50 10.24L21.50 10.24L21.50 10.24Q22.09 10.04 22.86 10.04L22.86 10.04L22.86 10.04Q24.30 10.04 24.71 10.68L24.71 10.68L24.71 10.68Q25.62 10.04 26.92 10.04L26.92 10.04ZM33.96 10.04L33.96 10.04Q34.93 10.04 35.49 10.23L35.49 10.23L35.49 10.23Q36.05 10.42 36.30 10.84L36.30 10.84L36.30 10.84Q36.54 11.27 36.54 12.00L36.54 12.00L36.54 17.18L35.90 17.18L35.52 16.48L35.52 16.48Q35.01 16.91 34.41 17.12L34.41 17.12L34.41 17.12Q33.80 17.32 33.01 17.32L33.01 17.32L33.01 17.32Q31.85 17.32 31.36 16.84L31.36 16.84L31.36 16.84Q30.87 16.35 30.87 15.22L30.87 15.22L30.87 15.22Q30.87 14.20 31.15 13.75L31.15 13.75L31.15 13.75Q31.43 13.30 32.25 13.15L32.25 13.15L32.25 13.15Q33.07 12.99 34.93 12.99L34.93 12.99L35.14 12.99L35.14 11.30L35.14 11.30Q34.62 11.14 33.73 11.14L33.73 11.14L33.73 11.14Q32.61 11.14 31.36 11.48L31.36 11.48L31.18 10.46L31.18 10.46Q31.70 10.28 32.47 10.16L32.47 10.16L32.47 10.16Q33.24 10.04 33.96 10.04L33.96 10.04ZM34.02 16.24L34.02 16.24Q34.68 16.24 34.91 16.07L34.91 16.07L34.91 16.07Q35.14 15.90 35.14 15.43L35.14 15.43L35.14 13.90L33.28 13.90L33.28 13.90Q32.62 13.90 32.38 14.07L32.38 14.07L32.38 14.07Q32.14 14.24 32.14 14.71L32.14 14.71L32.14 16.24L34.02 16.24ZM39.65 10.18L40.14 11.28L40.14 11.28Q40.77 10.72 41.22 10.42L41.22 10.42L41.22 10.42Q41.66 10.11 42.06 9.97L42.06 9.97L42.20 11.34L42.20 11.34Q41.73 11.48 41.24 11.73L41.24 11.73L41.24 11.73Q40.74 11.97 40.39 12.24L40.39 12.24L40.39 17.18L38.99 17.18L38.99 10.18L39.65 10.18ZM46.73 11.14L45.49 11.14L45.49 16.14L45.49 16.14Q45.99 16.20 46.48 16.21L46.48 16.21L46.40 17.16L46.40 17.16Q45.61 17.32 45.12 17.32L45.12 17.32L45.12 17.32Q44.59 17.32 44.34 17.06L44.34 17.06L44.34 17.06Q44.09 16.80 44.09 16.27L44.09 16.27L44.09 11.14L43.11 11.14L43.11 10.18L44.09 10.18L44.09 8.68L45.49 8.33L45.49 10.18L46.73 10.18L46.73 11.14Z"></path></g><!----><!----></svg>